# xmcd
#
# Track frame offsets:
#	150
#	10675
#	25333
#	40426
#	54792
#	72338
#	85539
#	99157
#	111739
#	121279
#
# Disc length: 1818 seconds
#
# Revision: 1
# Processed by: cddbd v1.5.2PL0 Copyright (c) Steve Scherf et al.
# Submitted via: audiograbber 1.83.01
#
DISCID=7707180a
DTITLE=Shirley Willhide - Miracles
DYEAR=2003
DGENRE=Country
TTITLE0=Hello Goodbye
TTITLE1=In The Meantime Blues
TTITLE2=Things Could Be Better
TTITLE3=Tell Me I'm Crazy
TTITLE4=He's A Miracle
TTITLE5=Lovin' Lyin' Loneliness And Leavin'
TTITLE6=It's Still Only You
TTITLE7=Moments
TTITLE8=Tree Of Life
TTITLE9=His Blood
EXTD=
EXTT0=
EXTT1=
EXTT2=
EXTT3=
EXTT4=
EXTT5=
EXTT6=
EXTT7=
EXTT8=
EXTT9=
PLAYORDER=
